# xmcd
#
# Track frame offsets:
#	150
#	10900
#	20617
#	32640
#	45645
#	54190
#	66427
#	77750
#	88620
#	98167
#	108162
#	120162
#	130797
#	143735
#	155430
#	167567
#	180025
#	192440
#	202695
#	212965
#	222605
#	233202
#	242140
#	254095
#
# Disc length: 3544
#
# Revision: 1
# Processed by: cddbd v1.5.1PL0 Copyright (c) Steve Scherf et al.
# Submitted via: audiograbber 1.81.02
# Normalized: r0:DSETVAR1,TDELIM( - )
#
DISCID=420dd618
DTITLE=Various Artist - Yesterdays Gold CD 3
DYEAR=1900
DGENRE=
TTITLE0=The Everly Brothers - Bye bye love
TTITLE1=Buddy Holly - Every Day
TTITLE2=The Platters - Smoke gets in your eyes
TTITLE3=Jerry lee Lewis - Whole lotta shakin' going' on
TTITLE4=Elvis Presley - Hound Dog
TTITLE5=Pat Boone - April Love
TTITLE6=Bill Haley - Skake, Rattle and Rock
TTITLE7=Paul Anka - Cracy love
TTITLE8=Fats Domino - My blue heaven
TTITLE9=Conny Francis - Stupid Cupid
TTITLE10=The Drifters - Adorable
TTITLE11=Neil Sedeka - One Way Ticket
TTITLE12=Ray Charles - I got a Woman
TTITLE13=Dion and The Belmonts - No one knows
TTITLE14=Jacky Wilson - Lonely Teartrops
TTITLE15=Sam Cooke - You send me
TTITLE16=James Brown - Please, please, please
TTITLE17=The Everly Brothers - This little Girl of mine
TTITLE18=Del Shannon - Runaway
TTITLE19=Elvis Presley - One Nigth
TTITLE20=Jonny Preston - Cradle of love
TTITLE21=Bobby Vee - One last kiss
TTITLE22=The Platters - You'll never know
TTITLE23=Tennessee Ernie Ford - Sixteen tons
EXTD=
EXTT0=
EXTT1=
EXTT2=
EXTT3=
EXTT4=
EXTT5=
EXTT6=
EXTT7=
EXTT8=
EXTT9=
EXTT10=
EXTT11=
EXTT12=
EXTT13=
EXTT14=
EXTT15=
EXTT16=
EXTT17=
EXTT18=
EXTT19=
EXTT20=
EXTT21=
EXTT22=
EXTT23=
PLAYORDER=
